<svg width="200" height="31" viewBox="0 0 200 31" fill="none" xmlns="http://www.w3.org/2000/svg">
<path d="M9.2658 21.0118L9.26586 24.6286H0V23.733C0.183698 23.8019 0.321481 23.8019 0.413347 23.733C0.528154 23.7101 0.642961 23.6239 0.757769 23.4747C0.872576 23.3254 0.929997 23.0901 0.929997 22.7686V1.86011C0.929997 1.51566 0.872576 1.26879 0.757769 1.11953C0.642961 0.970281 0.528154 0.872696 0.413347 0.82678C0.321481 0.780865 0.183698 0.780865 0 0.82678V8.62309e-05H4.16792V0.82678C3.98422 0.780865 3.82346 0.780865 3.68568 0.82678C3.59381 0.872696 3.50195 0.970281 3.41008 1.11953C3.31821 1.26879 3.2723 1.51566 3.2723 1.86011V23.7331H6.51018C6.99242 23.7331 7.35985 23.601 7.61244 23.3369C7.86503 23.0728 8.04873 22.7571 8.16354 22.3897C8.27834 21.9993 8.34724 21.5401 8.37021 21.0119H9.2658L9.2658 21.0118ZM22.734 23.1475C22.734 23.3312 22.6881 23.5205 22.5962 23.7157C22.5044 23.9109 22.3723 24.0946 22.2001 24.2668C22.0279 24.4391 21.8097 24.5941 21.5457 24.7319C21.2816 24.8696 20.9773 24.9385 20.6328 24.9385C20.0817 24.9385 19.588 24.8122 19.1517 24.5596C18.7153 24.307 18.4168 23.974 18.2561 23.5607C18.1183 23.3311 18.015 23.067 17.9461 22.7684C17.6475 23.3884 17.194 23.9051 16.5855 24.3185C15.977 24.7318 15.3052 24.9385 14.5704 24.9385C13.6518 24.9385 12.8481 24.6055 12.1592 23.9396C11.7689 23.5951 11.4474 23.1473 11.1948 22.5962C10.9421 22.0451 10.7929 21.4136 10.747 20.7017C10.724 20.6328 10.7125 20.495 10.7125 20.2883V20.2539C10.7355 19.8635 10.8044 19.4559 10.9192 19.0311C11.034 18.6062 11.212 18.1814 11.4531 17.7566C11.6942 17.3317 11.9813 16.9299 12.3143 16.551C12.6473 16.1721 13.0089 15.8449 13.3993 15.5693C13.4912 15.5234 13.5658 15.4717 13.6232 15.4143C13.6807 15.3569 13.7668 15.2937 13.8816 15.2248L13.9849 15.1732L14.0883 15.1215C14.5016 14.8689 14.8633 14.6393 15.1733 14.4326C15.4833 14.2259 15.7646 14.0307 16.0172 13.847C16.155 13.7551 16.2928 13.6518 16.4305 13.537C16.5683 13.4222 16.7176 13.3074 16.8783 13.1926C17.085 13.0548 17.2802 12.894 17.4639 12.7103C17.6476 12.5266 17.7854 12.3085 17.8773 12.0559C18.015 11.8263 18.0839 11.5507 18.0839 11.2292C18.0839 10.9077 18.0495 10.6207 17.9806 10.3681C17.8887 9.86289 17.6534 9.42654 17.2745 9.05917C16.8956 8.69181 16.4765 8.45062 16.0172 8.33582C15.8105 8.26693 15.6153 8.23248 15.4316 8.23248C14.7886 8.23248 14.2375 8.34729 13.7782 8.57694C13.4797 8.71472 13.2616 8.86972 13.1238 9.04195C12.986 9.21418 12.9113 9.37494 12.8999 9.52419C12.8884 9.67344 12.9171 9.794 12.986 9.88587C13.0549 9.97773 13.1467 10.0466 13.2616 10.0925C13.3075 10.1155 13.3362 10.127 13.3476 10.127C13.3591 10.127 13.3878 10.1385 13.4337 10.1614C13.7323 10.2762 13.9791 10.4772 14.1743 10.7642C14.3695 11.0512 14.4671 11.367 14.4671 11.7115C14.4671 12.1478 14.3121 12.5209 14.0021 12.8309C13.6921 13.1409 13.3189 13.2959 12.8826 13.2959C12.4234 13.2959 12.033 13.1409 11.7115 12.8309C11.39 12.5209 11.2292 12.1478 11.2292 11.7115C11.2292 11.3211 11.2809 10.9135 11.3842 10.4886C11.4876 10.0638 11.6426 9.67916 11.8493 9.3347C12.2856 8.69171 12.808 8.22668 13.4165 7.93966C14.025 7.65264 14.6968 7.50909 15.4316 7.50909C15.9827 7.50909 16.5281 7.61242 17.0678 7.8191C17.6074 8.02577 18.0897 8.31856 18.5145 8.69746C18.9393 9.07636 19.2952 9.52991 19.5823 10.0581C19.8694 10.5862 20.0129 11.1948 20.0129 11.8837V22.0107C20.0129 22.424 20.0186 22.6938 20.0301 22.8202C20.0415 22.9465 20.0473 23.0326 20.0473 23.0785C20.0473 23.377 20.1392 23.6182 20.3229 23.8019C20.5066 23.9856 20.7247 24.0774 20.9773 24.0774C21.2758 24.0774 21.517 23.9913 21.7007 23.8191C21.8844 23.6469 21.9877 23.423 22.0107 23.1474H22.734V23.1475ZM17.3261 22.2862C17.5098 21.9648 17.6187 21.6204 17.6532 21.253C17.6876 20.8855 17.7049 20.5411 17.7049 20.2196V13.8471C17.613 13.939 17.5154 14.0251 17.4121 14.1055C17.3087 14.1858 17.1997 14.2834 17.0848 14.3982C16.4189 14.8805 15.8506 15.3225 15.3798 15.7244C14.909 16.1263 14.5129 16.5396 14.1914 16.9644C13.8699 17.3893 13.6173 17.8428 13.4336 18.325C13.2499 18.8073 13.1351 19.3584 13.0892 19.9784V20.4951C13.1122 21.3677 13.3476 22.0508 13.7954 22.5446C14.2432 23.0384 14.8804 23.2852 15.7071 23.2852C16.0745 23.2852 16.4075 23.1933 16.706 23.0096C17.0046 22.803 17.2112 22.5618 17.326 22.2863L17.3261 22.2862ZM38.7512 21.0118V24.6285H29.1409V23.7329C29.3246 23.8018 29.4624 23.8018 29.5543 23.7329C29.6691 23.71 29.7781 23.6239 29.8815 23.4746C29.9848 23.3254 30.0365 23.09 30.0365 22.7685V1.86003C30.0365 1.51557 29.9848 1.2687 29.8815 1.11945C29.7781 0.970195 29.6691 0.87261 29.5543 0.826694C29.4624 0.780778 29.3246 0.780778 29.1409 0.826694V0H38.7512V3.61679H37.8556C37.8327 3.08863 37.7638 2.61787 37.649 2.20452C37.5342 1.86006 37.3447 1.53283 37.0806 1.22282C36.8165 0.912808 36.4548 0.757803 35.9956 0.757803H32.4132V11.9182H34.8244C35.123 11.9182 35.3526 11.8378 35.5134 11.6771C35.6741 11.5163 35.7889 11.3326 35.8578 11.1259C35.9497 10.8733 35.9956 10.5863 35.9956 10.2648H36.7879V14.5016H35.9956C35.9956 14.1802 35.9497 13.9046 35.8578 13.6749C35.7889 13.4453 35.6741 13.2444 35.5134 13.0721C35.3526 12.8999 35.123 12.8138 34.8244 12.8138H32.4132V23.8019H35.9956C36.4548 23.8019 36.8165 23.6642 37.0806 23.3886C37.3447 23.113 37.5342 22.7915 37.649 22.4241C37.7638 22.0108 37.8327 21.54 37.8556 21.0118H38.7512V21.0118ZM46.8804 24.4219C46.8574 24.4449 46.8403 24.4564 46.8288 24.4564C46.8173 24.4564 46.8001 24.4679 46.7771 24.4908L46.7427 24.5253C46.6968 24.5483 46.6451 24.5712 46.5877 24.5942C46.5303 24.6172 46.4786 24.6402 46.4327 24.6631C45.9505 24.8698 45.3879 24.9731 44.7449 24.9731C44.3774 24.9731 44.0215 24.887 43.677 24.7148C43.3326 24.5426 43.034 24.399 42.7815 24.2842C42.5289 24.1694 42.3164 24.1178 42.1442 24.1292C41.972 24.1407 41.8859 24.3072 41.8859 24.6287H41.2314V20.4952H42.0581C42.0122 21.23 42.0925 21.8615 42.2992 22.3897C42.437 22.849 42.7068 23.2795 43.1087 23.6814C43.5106 24.0833 44.1134 24.2842 44.9171 24.2842C45.4452 24.2842 45.8816 24.1923 46.226 24.0086C46.8231 23.7101 47.2306 23.3542 47.4488 22.9408C47.667 22.5275 47.7531 22.0969 47.7072 21.6491C47.6613 21.2013 47.4948 20.7593 47.2078 20.323C46.9207 19.8866 46.5705 19.4848 46.1572 19.1174C45.8816 18.9107 45.5946 18.6925 45.296 18.4629C44.9975 18.2332 44.6989 17.9921 44.4004 17.7395C43.5967 17.0965 42.9595 16.5167 42.4887 16C42.0179 15.4833 41.6563 15.0011 41.4037 14.5533C41.1511 14.1055 40.9789 13.6807 40.887 13.2788C40.7951 12.8769 40.7492 12.4464 40.7492 11.9871C40.7492 11.7116 40.7664 11.459 40.8009 11.2293C40.8353 10.9997 40.8755 10.793 40.9214 10.6093C40.9903 10.2189 41.1051 9.84002 41.2659 9.47259C41.4266 9.10516 41.6563 8.77793 41.9548 8.49089C42.2534 8.20386 42.6208 7.96849 43.0571 7.78479C43.4934 7.60109 44.0216 7.50923 44.6416 7.50923C44.986 7.50923 45.3305 7.58387 45.675 7.73312C46.0194 7.88237 46.3294 8.02016 46.605 8.14647C46.8806 8.27278 47.0987 8.3302 47.2595 8.31873C47.4202 8.30726 47.5006 8.12928 47.5006 7.78483H48.155V12.0561H47.2595C47.2824 11.3672 47.2021 10.7471 47.0184 10.196C46.8576 9.71378 46.5763 9.27744 46.1744 8.88708C45.7725 8.49673 45.1812 8.30151 44.4005 8.30151C43.7805 8.30151 43.2752 8.43929 42.8849 8.71486C42.6782 8.87561 42.5002 9.11098 42.351 9.42099C42.2017 9.731 42.1156 10.0697 42.0926 10.4371C42.0696 10.8046 42.1271 11.2007 42.2648 11.6255C42.4026 12.0503 42.6782 12.4465 43.0915 12.8139C43.1375 12.8828 43.2006 12.9517 43.281 13.0206C43.3613 13.0894 43.4474 13.1469 43.5393 13.1928C43.6082 13.2387 43.6656 13.2846 43.7115 13.3305L43.8493 13.4683C44.1019 13.675 44.3602 13.8817 44.6243 14.0883C44.8884 14.295 45.1582 14.5017 45.4338 14.7084C46.0768 15.2595 46.6107 15.7589 47.0355 16.2067C47.4603 16.6545 47.8163 17.0736 48.1033 17.464C48.3904 17.8544 48.6028 18.2218 48.7406 18.5663C48.8784 18.9107 48.9587 19.2437 48.9817 19.5652C49.2113 20.6215 49.1712 21.5114 48.8611 22.2347C48.5511 22.9581 48.155 23.5264 47.6728 23.9398H47.6383C47.6383 23.9857 47.6153 24.0087 47.5694 24.0087C47.5235 24.0546 47.4776 24.089 47.4317 24.112L47.225 24.2498L47.0183 24.3531V24.3876C46.9954 24.3876 46.9724 24.3933 46.9494 24.4048C46.9264 24.4163 46.9035 24.422 46.8805 24.422L46.8804 24.4219ZM59.9353 29.0721C59.9353 29.3936 59.987 29.629 60.0903 29.7783C60.1936 29.9275 60.3027 30.0251 60.4175 30.071C60.5094 30.1399 60.6587 30.1399 60.8653 30.071V30.9322H56.7319V30.071C56.8926 30.1399 57.0304 30.1399 57.1452 30.071C57.26 30.0251 57.3633 29.9275 57.4552 29.7783C57.5471 29.629 57.593 29.3936 57.593 29.0722V23.6642C57.1796 24.1694 56.7893 24.5081 56.4218 24.6804C56.0544 24.8526 55.6755 24.9387 55.2851 24.9387C54.734 24.9387 54.1829 24.8411 53.6318 24.6459C53.0806 24.4507 52.5812 24.1579 52.1334 23.7675C51.6856 23.3772 51.3181 22.8777 51.0311 22.2692C50.7441 21.6606 50.6005 20.9315 50.6005 20.0819V12.1594C50.6005 11.5394 50.7441 10.9423 51.0311 10.3682C51.3181 9.79409 51.6856 9.29463 52.1334 8.86983C52.5812 8.44503 53.0864 8.11778 53.649 7.88813C54.2116 7.65848 54.7569 7.54367 55.2851 7.54367C55.6755 7.54367 56.0142 7.59534 56.3013 7.69868C56.5884 7.80201 56.8352 7.9111 57.0419 8.02591C57.2485 8.14072 57.4322 8.24981 57.593 8.35314C57.7538 8.45648 57.9145 8.50815 58.0753 8.50815C58.3738 8.48517 58.6149 8.35886 58.7986 8.12921C58.8905 8.03735 58.9594 7.92254 59.0053 7.78476H59.9353V29.0721L59.9353 29.0721ZM57.593 11.1259C57.593 10.9882 57.5643 10.7988 57.5069 10.5577C57.4495 10.3166 57.3748 10.064 57.283 9.79993C57.1911 9.53583 57.0533 9.28896 56.8696 9.05931C56.6859 8.82966 56.4563 8.65744 56.1807 8.54263C56.1577 8.54263 56.1347 8.53116 56.1118 8.50818C55.8592 8.3704 55.5951 8.30151 55.3195 8.30151C54.6076 8.34742 54.0507 8.72057 53.6489 9.42099C53.2471 10.1214 53.0461 11.3556 53.0461 13.1239V19.3585C53.0461 20.2311 53.092 20.966 53.1839 21.5631C53.2758 22.1602 53.4193 22.6423 53.6145 23.0098C53.8097 23.3772 54.0508 23.6298 54.3379 23.7676C54.6249 23.9054 54.9521 23.9743 55.3196 23.9743C55.7329 23.9743 56.1405 23.8709 56.5424 23.6642C56.9442 23.4576 57.2945 23.0901 57.593 22.562V11.126V11.1259ZM73.7135 8.7492L73.6447 8.74933C73.6218 8.74933 73.5988 8.74358 73.5758 8.73211C73.5528 8.72064 73.5299 8.71489 73.5069 8.71489C73.3921 8.71489 73.2543 8.77803 73.0935 8.90434C72.9328 9.03065 72.8524 9.31197 72.8524 9.74829V10.3511V11.8322V13.9162V16.3102L72.8352 18.7041L72.818 20.7881V22.2865V22.9065C72.818 23.3428 72.8926 23.6012 73.0419 23.6815C73.1911 23.7619 73.3347 23.8021 73.4725 23.8021C73.5184 23.8021 73.5528 23.7906 73.5758 23.7676C73.5988 23.7676 73.6217 23.7562 73.6447 23.7332V24.6288H70.4068V23.3543C70.315 23.4921 70.2288 23.6069 70.1485 23.6988C70.0681 23.7906 69.9705 23.894 69.8557 24.0088C69.5113 24.3302 69.0979 24.5828 68.6157 24.7665C68.5927 24.7665 68.5812 24.7723 68.5812 24.7838C68.5812 24.7952 68.5698 24.801 68.5468 24.801H68.5124C68.2368 24.8928 67.9153 24.9388 67.5479 24.9388H67.4101C66.2389 24.8928 65.2917 24.4967 64.5683 23.7504C63.845 23.0041 63.4833 21.8042 63.4833 20.1508V15.1562C63.4833 14.4673 63.489 13.8014 63.5005 13.1584C63.512 12.5154 63.5177 11.9412 63.5177 11.4361C63.5177 10.9309 63.5235 10.529 63.535 10.2305C63.5464 9.93202 63.5522 9.7712 63.5522 9.74822C63.5522 9.3119 63.4661 9.03058 63.2938 8.90427C63.1216 8.77796 62.9781 8.71482 62.8633 8.71482C62.8174 8.71482 62.7829 8.72057 62.7599 8.73204C62.737 8.74351 62.714 8.74926 62.691 8.74926H62.6221V7.88812H66.7556V8.74926H66.7212C66.6982 8.74926 66.6752 8.74351 66.6522 8.73204C66.6292 8.72057 66.5948 8.71482 66.5489 8.71482C66.4111 8.71482 66.2733 8.76649 66.1355 8.86982C65.9977 8.97316 65.9174 9.20853 65.8944 9.57596V11.4016L65.8772 13.7094L65.86 16.1378V18.3768V20.0819V20.8741V20.9086C65.9059 22.0797 66.0494 22.9064 66.2905 23.3886C66.5317 23.8709 66.9278 24.1235 67.4789 24.1464H67.6167C68.3056 24.1464 68.9142 23.8709 69.4423 23.3197C69.9705 22.7686 70.2919 21.8386 70.4068 20.5297C70.4068 19.4274 70.4125 18.2505 70.424 16.999C70.4355 15.7475 70.4412 14.5821 70.4412 13.5028V10.8504V9.74819C70.4412 9.31186 70.3723 9.03055 70.2346 8.90423C70.0968 8.77792 69.959 8.71478 69.8212 8.71478C69.7753 8.71478 69.7409 8.72054 69.7179 8.73201C69.6949 8.74348 69.6719 8.74923 69.649 8.74923H69.5801V7.88809H73.7135V8.74923L73.7135 8.7492ZM79.4659 4.03015C79.4659 4.46647 79.3167 4.82815 79.0181 5.11519C78.7196 5.40222 78.3637 5.54576 77.9503 5.54576C77.537 5.54576 77.1925 5.40222 76.9169 5.11519C76.6414 4.82815 76.5036 4.46647 76.5036 4.03015C76.5036 3.6168 76.6414 3.27235 76.9169 2.99678C77.1925 2.72122 77.537 2.58344 77.9503 2.58344C78.3637 2.58344 78.7196 2.72122 79.0181 2.99678C79.3167 3.27235 79.4659 3.6168 79.4659 4.03015ZM79.1559 22.7686C79.1559 23.09 79.2018 23.3254 79.2937 23.4746C79.3856 23.6239 79.4889 23.71 79.6037 23.733C79.7185 23.8019 79.8563 23.8019 80.017 23.733V24.6285H75.8836V23.733C76.0443 23.8019 76.1936 23.8019 76.3314 23.733C76.4462 23.71 76.5495 23.6239 76.6414 23.4746C76.7332 23.3254 76.7792 23.09 76.7792 22.7685V9.64475C76.7792 9.34621 76.7332 9.12231 76.6414 8.97306C76.5495 8.82381 76.4462 8.72622 76.3314 8.68031C76.1936 8.63439 76.0443 8.63439 75.8836 8.68031V7.81917H79.1559V22.7686ZM88.5251 7.5436C89.7422 7.58952 90.7122 7.98561 91.4356 8.73198C92.159 9.47834 92.5206 10.6897 92.5206 12.366V17.395V22.7686C92.5206 23.2278 92.601 23.5091 92.7617 23.6125C92.9225 23.7158 93.0603 23.7675 93.1751 23.7675H93.3473C93.3703 23.7675 93.3933 23.756 93.4162 23.733V24.6286H89.2828V23.733C89.3057 23.756 89.3287 23.7675 89.3517 23.7675H89.4895C89.6043 23.7675 89.7306 23.7216 89.8684 23.6297C90.0062 23.5378 90.098 23.3082 90.1439 22.9407V13.1582C90.1439 12.8367 90.1382 12.5497 90.1267 12.2971C90.1153 12.0445 90.1095 11.8149 90.1095 11.6082V11.5737C90.0636 10.4256 89.9201 9.61034 89.6789 9.1281C89.4378 8.64586 89.0532 8.38177 88.525 8.33585H88.3872C87.6524 8.33585 87.0266 8.61142 86.5099 9.16255C85.9933 9.71368 85.6775 10.6437 85.5627 11.9526V22.7686C85.5627 23.2278 85.6373 23.5091 85.7866 23.6125C85.9358 23.7158 86.0794 23.7675 86.2172 23.7675H86.3549C86.3779 23.7675 86.4009 23.756 86.4239 23.733V24.6286H82.2904V23.733C82.3134 23.756 82.3363 23.7675 82.3593 23.7675H82.5315C82.6463 23.7675 82.7899 23.7158 82.9621 23.6125C83.1343 23.5091 83.2205 23.2278 83.2205 22.7686V9.61034C83.2205 9.17402 83.1343 8.89845 82.9621 8.78364C82.7899 8.66884 82.6463 8.61142 82.5315 8.61142H82.4282H82.3593H82.2904V7.81917H85.5628V9.16255C85.6546 9.02476 85.735 8.89845 85.8039 8.78364C85.8728 8.66884 85.9646 8.5655 86.0794 8.47363C86.4469 8.12918 86.8717 7.87659 87.3539 7.71583H87.4228C87.4228 7.69286 87.4343 7.68138 87.4573 7.68138C87.618 7.63547 87.7788 7.60102 87.9395 7.57805C88.1003 7.55507 88.2725 7.5436 88.4562 7.5436H88.5251ZM107.126 23.1475C107.126 23.3312 107.08 23.5205 106.988 23.7157C106.896 23.9109 106.764 24.0946 106.592 24.2668C106.42 24.4391 106.201 24.5941 105.937 24.7319C105.673 24.8696 105.369 24.9385 105.025 24.9385C104.473 24.9385 103.98 24.8122 103.543 24.5596C103.107 24.307 102.809 23.974 102.648 23.5607C102.51 23.3311 102.407 23.067 102.338 22.7684C102.039 23.3884 101.586 23.9051 100.977 24.3185C100.369 24.7318 99.6969 24.9385 98.9621 24.9385C98.0435 24.9385 97.2398 24.6055 96.5509 23.9396C96.1606 23.5951 95.8391 23.1473 95.5865 22.5962C95.3338 22.0451 95.1846 21.4136 95.1387 20.7017C95.1157 20.6328 95.1043 20.495 95.1043 20.2883V20.2539C95.1272 19.8635 95.1961 19.4559 95.3109 19.0311C95.4257 18.6062 95.6037 18.1814 95.8448 17.7566C96.086 17.3317 96.373 16.9299 96.706 16.551C97.039 16.1721 97.4006 15.8449 97.791 15.5693C97.8829 15.5234 97.9575 15.4717 98.0149 15.4143C98.0724 15.3569 98.1585 15.2937 98.2733 15.2248L98.3766 15.1732L98.4799 15.1215C98.8933 14.8689 99.255 14.6393 99.565 14.4326C99.875 14.2259 100.156 14.0307 100.409 13.847C100.547 13.7551 100.684 13.6518 100.822 13.537C100.96 13.4222 101.109 13.3074 101.27 13.1926C101.477 13.0548 101.672 12.894 101.856 12.7103C102.039 12.5266 102.177 12.3085 102.269 12.0559C102.407 11.8263 102.476 11.5507 102.476 11.2292C102.476 10.9077 102.441 10.6207 102.372 10.3681C102.28 9.86289 102.045 9.42654 101.666 9.05917C101.287 8.69181 100.868 8.45062 100.409 8.33582C100.202 8.26693 100.007 8.23248 99.8233 8.23248C99.1803 8.23248 98.6292 8.34729 98.1699 8.57694C97.8714 8.71472 97.6533 8.86972 97.5155 9.04195C97.3777 9.21418 97.3031 9.37494 97.2916 9.52419C97.2801 9.67344 97.3088 9.794 97.3777 9.88587C97.4466 9.97773 97.5385 10.0466 97.6533 10.0925C97.6992 10.1155 97.7279 10.127 97.7393 10.127C97.7508 10.127 97.7795 10.1385 97.8254 10.1614C98.124 10.2762 98.3708 10.4772 98.566 10.7642C98.7612 11.0512 98.8588 11.367 98.8588 11.7115C98.8588 12.1478 98.7038 12.5209 98.3938 12.8309C98.0838 13.1409 97.7106 13.2959 97.2743 13.2959C96.8151 13.2959 96.4247 13.1409 96.1032 12.8309C95.7817 12.5209 95.6209 12.1478 95.6209 11.7115C95.6209 11.3211 95.6726 10.9135 95.7759 10.4886C95.8793 10.0638 96.0343 9.67916 96.241 9.3347C96.6773 8.69171 97.1998 8.22668 97.8082 7.93966C98.4167 7.65264 99.0885 7.50909 99.8233 7.50909C100.374 7.50909 100.92 7.61242 101.459 7.8191C101.999 8.02577 102.481 8.31856 102.906 8.69746C103.331 9.07636 103.687 9.52991 103.974 10.0581C104.261 10.5862 104.405 11.1948 104.405 11.8837V22.0107C104.405 22.424 104.41 22.6938 104.422 22.8202C104.433 22.9465 104.439 23.0326 104.439 23.0785C104.439 23.377 104.531 23.6182 104.715 23.8019C104.898 23.9856 105.116 24.0774 105.369 24.0774C105.668 24.0774 105.909 23.9913 106.092 23.8191C106.276 23.6469 106.379 23.423 106.402 23.1474H107.126V23.1475ZM101.718 22.2862C101.901 21.9648 102.01 21.6204 102.045 21.253C102.079 20.8855 102.097 20.5411 102.097 20.2196V13.8471C102.005 13.939 101.907 14.0251 101.804 14.1055C101.7 14.1858 101.591 14.2834 101.477 14.3982C100.811 14.8805 100.242 15.3225 99.7715 15.7244C99.3007 16.1263 98.9046 16.5396 98.5831 16.9644C98.2617 17.3893 98.009 17.8428 97.8253 18.325C97.6416 18.8073 97.5268 19.3584 97.4809 19.9784V20.4951C97.5039 21.3677 97.7393 22.0508 98.1871 22.5446C98.6349 23.0384 99.2721 23.2852 100.099 23.2852C100.466 23.2852 100.799 23.1933 101.098 23.0096C101.396 22.803 101.603 22.5618 101.718 22.2863L101.718 22.2862ZM123.281 23.0097C123.281 23.3312 123.327 23.5437 123.419 23.647C123.51 23.7503 123.614 23.8135 123.729 23.8364C123.843 23.8594 123.993 23.825 124.176 23.7331V24.6287H120.938V23.3198C120.847 23.4575 120.755 23.5781 120.663 23.6814C120.571 23.7848 120.468 23.8939 120.353 24.0087C119.963 24.3301 119.515 24.5827 119.009 24.7664C118.987 24.7664 118.964 24.7779 118.941 24.8009H118.872C118.596 24.8927 118.252 24.9387 117.838 24.9387H117.735C116.449 24.9157 115.41 24.5196 114.618 23.7503C113.825 22.981 113.429 21.7697 113.429 20.1163V12.366C113.429 11.5393 113.533 10.8217 113.739 10.2132C113.946 9.6046 114.239 9.11091 114.618 8.73201C114.997 8.35311 115.444 8.06607 115.961 7.87087C116.478 7.67567 117.069 7.56658 117.735 7.5436H117.838C118.252 7.5436 118.596 7.58952 118.872 7.68138H118.941L119.009 7.71583C119.515 7.87659 119.962 8.12918 120.353 8.47363C120.468 8.5655 120.571 8.66884 120.663 8.78364C120.755 8.89845 120.847 9.02476 120.938 9.16255V1.96342C120.938 1.59599 120.887 1.3434 120.783 1.20561C120.68 1.06783 120.583 0.975964 120.491 0.930048C120.33 0.861157 120.169 0.861157 120.008 0.930048V0.0344628H123.281V23.0097ZM117.769 24.1464C118.16 24.1694 118.533 24.1119 118.889 23.9742C119.245 23.8364 119.561 23.6297 119.836 23.3541C120.112 23.0786 120.353 22.6997 120.56 22.2174C120.766 21.7352 120.893 21.1382 120.938 20.4263V12.0215C120.893 11.3326 120.766 10.747 120.56 10.2648C120.353 9.78257 120.112 9.39789 119.836 9.11088C119.561 8.82386 119.245 8.61717 118.889 8.49086C118.533 8.36454 118.16 8.31288 117.769 8.33585C117.149 8.38177 116.713 8.64011 116.46 9.11088C116.208 9.58164 116.07 10.4026 116.047 11.5737V11.6082C116.047 11.7 116.041 11.9814 116.03 12.4521C116.018 12.9229 116.013 13.4798 116.013 14.1227V16.2411V18.3768L116.03 20.0474L116.047 20.8741V20.9085C116.07 22.0797 116.208 22.9006 116.46 23.3714C116.713 23.8422 117.149 24.1005 117.769 24.1464V24.1464ZM130.445 7.5436C130.974 7.5436 131.513 7.63561 132.064 7.8193C132.616 8.003 133.109 8.29004 133.546 8.68041C133.982 9.07078 134.332 9.56446 134.596 10.1616C134.86 10.7587 134.992 11.4705 134.992 12.2972V15.7762V15.8795V16.6718H128.138V20.2197C128.138 21.6434 128.384 22.6596 128.878 23.2681C129.372 23.8767 129.986 24.1695 130.721 24.1465C131.157 24.1235 131.588 24.0489 132.013 23.9226C132.438 23.7962 132.805 23.5838 133.115 23.2853C133.425 22.9867 133.683 22.5619 133.89 22.0108C134.097 21.4597 134.2 20.7363 134.2 19.8407H134.992V20.323C134.992 20.943 134.923 21.5343 134.786 22.0969C134.648 22.6595 134.407 23.1475 134.062 23.5608C133.718 23.9742 133.276 24.3014 132.736 24.5425C132.196 24.7837 131.536 24.9157 130.755 24.9387C130.204 24.9387 129.642 24.8353 129.068 24.6287C128.494 24.422 127.977 24.112 127.518 23.6986C127.058 23.2853 126.679 22.7973 126.381 22.2347C126.082 21.6721 125.933 21.0349 125.933 20.323V19.5135L125.916 18.1873L125.899 16.5512L125.881 14.8461L125.864 13.3477V12.3316C125.864 11.5049 126.008 10.7873 126.295 10.1787C126.582 9.57016 126.938 9.07647 127.363 8.69756C127.787 8.31866 128.27 8.03163 128.809 7.83642C129.349 7.64122 129.894 7.54364 130.445 7.54364L130.445 7.5436ZM132.684 15.7761V13.0549C132.684 12.1823 132.627 11.4532 132.512 10.8676C132.397 10.282 132.242 9.81124 132.047 9.45533C131.852 9.09942 131.617 8.85254 131.341 8.71475C131.065 8.57697 130.755 8.50808 130.411 8.50808C129.676 8.50808 129.119 8.82956 128.74 9.47256C128.361 10.1156 128.172 11.3097 128.172 13.0549V15.7761H132.684ZM140.331 22.7686C140.331 23.09 140.383 23.3254 140.486 23.4746C140.59 23.6239 140.687 23.71 140.779 23.733C140.894 23.8019 141.043 23.8019 141.227 23.733V24.6285H137.059V23.733C137.243 23.8019 137.403 23.8019 137.541 23.733C137.61 23.71 137.702 23.6239 137.817 23.4746C137.932 23.3254 137.989 23.09 137.989 22.7685V1.89449C137.989 1.55004 137.932 1.30316 137.817 1.15391C137.702 1.00466 137.61 0.907073 137.541 0.861157C137.403 0.792266 137.243 0.792266 137.059 0.861157V0.0344628H140.331V1.89453V22.7686ZM159.311 7.78472C159.311 8.54253 159.207 9.20267 159.001 9.76526C158.794 10.3278 158.547 10.7986 158.26 11.1775C157.973 11.5564 157.663 11.8435 157.33 12.0387C156.997 12.2339 156.693 12.3315 156.417 12.3315C156.67 12.3315 156.963 12.4233 157.296 12.607C157.629 12.7907 157.944 13.072 158.243 13.4509C158.541 13.8298 158.794 14.3121 159.001 14.8976C159.207 15.4832 159.311 16.1779 159.311 16.9816V19.9095C159.311 20.5295 159.196 21.1208 158.966 21.6834C158.737 22.246 158.438 22.7455 158.071 23.1818C157.703 23.6182 157.301 23.9683 156.865 24.2324C156.429 24.4965 156.004 24.6285 155.591 24.6285H152.318C151.446 24.6285 150.493 24.6171 149.459 24.5941V23.7329C149.62 23.8018 149.758 23.8018 149.873 23.7329C149.988 23.687 150.091 23.5894 150.183 23.4402C150.275 23.2909 150.32 23.0556 150.32 22.7341V1.92895C150.32 1.60747 150.275 1.37211 150.183 1.22285C150.091 1.0736 149.988 0.976016 149.873 0.9301C149.758 0.884184 149.62 0.884184 149.459 0.9301V0.0689601H154.764C155.568 0.0689601 156.257 0.195273 156.831 0.447862C157.405 0.700452 157.876 1.03916 158.243 1.46401C158.61 1.88886 158.88 2.36528 159.052 2.8935C159.225 3.42172 159.311 3.96131 159.311 4.51244V7.78477V7.78472ZM152.697 0.861157L152.697 11.9182H154.385C154.89 11.9182 155.361 11.8091 155.797 11.591C156.234 11.3728 156.578 10.9422 156.831 10.2993C156.877 10.1844 156.905 10.0696 156.917 9.95483C156.928 9.84002 156.957 9.72521 157.003 9.61041C157.003 9.54152 157.014 9.4841 157.037 9.43818C157.083 9.18559 157.118 8.9215 157.141 8.64593C157.164 8.37037 157.175 8.06036 157.175 7.7159V3.82355C157.175 3.2265 157.078 2.72706 156.882 2.32516C156.687 1.92327 156.463 1.60752 156.211 1.37791C155.981 1.21715 155.728 1.10235 155.453 1.03345C155.177 0.964563 154.879 0.907142 154.557 0.861226H152.697L152.697 0.861157ZM152.697 23.8018L154.144 23.8017C154.764 23.8017 155.355 23.618 155.918 23.2506C156.48 22.8832 156.854 22.2631 157.037 21.3905C157.083 21.1839 157.118 20.9714 157.141 20.7533C157.164 20.5351 157.175 20.2998 157.175 20.0472V16.9471C157.175 16.4878 157.141 16.063 157.072 15.6726C157.072 15.6267 157.06 15.5922 157.037 15.5693V15.5004C157.014 15.3856 156.991 15.265 156.968 15.1387C156.945 15.0124 156.911 14.8918 156.865 14.777C156.613 14.0881 156.257 13.5829 155.797 13.2614C155.338 12.9399 154.867 12.7792 154.385 12.7792H152.697V23.8018L152.697 23.8018ZM164.478 22.7686C164.478 23.09 164.529 23.3254 164.633 23.4746C164.736 23.6239 164.834 23.71 164.925 23.733C165.04 23.8019 165.19 23.8019 165.373 23.733V24.6285H161.205V23.733C161.389 23.8019 161.55 23.8019 161.688 23.733C161.756 23.71 161.848 23.6239 161.963 23.4746C162.078 23.3254 162.135 23.09 162.135 22.7685V1.89449C162.135 1.55004 162.078 1.30316 161.963 1.15391C161.848 1.00466 161.756 0.907073 161.688 0.861157C161.55 0.792266 161.389 0.792266 161.205 0.861157V0.0344628H164.478V1.89453V22.7686ZM178.325 8.7492L178.256 8.74933C178.233 8.74933 178.21 8.74358 178.187 8.73211C178.164 8.72064 178.141 8.71489 178.118 8.71489C178.003 8.71489 177.866 8.77803 177.705 8.90434C177.544 9.03065 177.464 9.31197 177.464 9.74829V10.3511V11.8322V13.9162V16.3102L177.446 18.7041L177.429 20.7881V22.2865V22.9065C177.429 23.3428 177.504 23.6012 177.653 23.6815C177.802 23.7619 177.946 23.8021 178.084 23.8021C178.13 23.8021 178.164 23.7906 178.187 23.7676C178.21 23.7676 178.233 23.7562 178.256 23.7332V24.6288H175.018V23.3543C174.926 23.4921 174.84 23.6069 174.76 23.6988C174.679 23.7906 174.582 23.894 174.467 24.0088C174.123 24.3302 173.709 24.5828 173.227 24.7665C173.204 24.7665 173.193 24.7723 173.193 24.7838C173.193 24.7952 173.181 24.801 173.158 24.801H173.124C172.848 24.8928 172.527 24.9388 172.159 24.9388H172.021C170.85 24.8928 169.903 24.4967 169.18 23.7504C168.456 23.0041 168.095 21.8042 168.095 20.1508V15.1562C168.095 14.4673 168.1 13.8014 168.112 13.1584C168.123 12.5154 168.129 11.9412 168.129 11.4361C168.129 10.9309 168.135 10.529 168.146 10.2305C168.158 9.93202 168.163 9.7712 168.163 9.74822C168.163 9.3119 168.077 9.03058 167.905 8.90427C167.733 8.77796 167.589 8.71482 167.475 8.71482C167.429 8.71482 167.394 8.72057 167.371 8.73204C167.348 8.74351 167.325 8.74926 167.302 8.74926H167.233V7.88812H171.367V8.74926H171.332C171.309 8.74926 171.286 8.74351 171.263 8.73204C171.241 8.72057 171.206 8.71482 171.16 8.71482C171.022 8.71482 170.885 8.76649 170.747 8.86982C170.609 8.97316 170.529 9.20853 170.506 9.57596V11.4016L170.488 13.7094L170.471 16.1378V18.3768V20.0819V20.8741V20.9086C170.517 22.0797 170.661 22.9064 170.902 23.3886C171.143 23.8709 171.539 24.1235 172.09 24.1464H172.228C172.917 24.1464 173.525 23.8709 174.054 23.3197C174.582 22.7686 174.903 21.8386 175.018 20.5297C175.018 19.4274 175.024 18.2505 175.035 16.999C175.047 15.7475 175.053 14.5821 175.053 13.5028V10.8504V9.74819C175.053 9.31186 174.984 9.03055 174.846 8.90423C174.708 8.77792 174.57 8.71478 174.432 8.71478C174.387 8.71478 174.352 8.72054 174.329 8.73201C174.306 8.74348 174.283 8.74923 174.26 8.74923H174.191V7.88809H178.325V8.74923L178.325 8.7492ZM185.179 7.5436C185.708 7.5436 186.247 7.63561 186.798 7.8193C187.35 8.003 187.843 8.29004 188.28 8.68041C188.716 9.07078 189.066 9.56446 189.33 10.1616C189.594 10.7587 189.726 11.4705 189.726 12.2972V15.7762V15.8795V16.6718H182.872V20.2197C182.872 21.6434 183.119 22.6596 183.612 23.2681C184.106 23.8767 184.72 24.1695 185.455 24.1465C185.891 24.1235 186.322 24.0489 186.747 23.9226C187.172 23.7962 187.539 23.5838 187.849 23.2853C188.159 22.9867 188.417 22.5619 188.624 22.0108C188.831 21.4597 188.934 20.7363 188.934 19.8407H189.726V20.323C189.726 20.943 189.657 21.5343 189.52 22.0969C189.382 22.6595 189.141 23.1475 188.796 23.5608C188.452 23.9742 188.01 24.3014 187.47 24.5425C186.931 24.7837 186.27 24.9157 185.49 24.9387C184.938 24.9387 184.376 24.8353 183.802 24.6287C183.228 24.422 182.711 24.112 182.252 23.6986C181.792 23.2853 181.413 22.7973 181.115 22.2347C180.816 21.6721 180.667 21.0349 180.667 20.323V19.5135L180.65 18.1873L180.633 16.5512L180.615 14.8461L180.598 13.3477V12.3316C180.598 11.5049 180.742 10.7873 181.029 10.1787C181.316 9.57016 181.672 9.07647 182.097 8.69756C182.521 8.31866 183.004 8.03163 183.543 7.83642C184.083 7.64122 184.628 7.54364 185.18 7.54364L185.179 7.5436ZM187.418 15.7761V13.0549C187.418 12.1823 187.361 11.4532 187.246 10.8676C187.131 10.282 186.976 9.81124 186.781 9.45533C186.586 9.09942 186.351 8.85254 186.075 8.71475C185.799 8.57697 185.489 8.50808 185.145 8.50808C184.41 8.50808 183.853 8.82956 183.474 9.47256C183.095 10.1156 182.906 11.3097 182.906 13.0549V15.7761H187.418ZM197.752 24.4219C197.729 24.4449 197.712 24.4564 197.701 24.4564C197.689 24.4564 197.672 24.4679 197.649 24.4908L197.614 24.5253C197.568 24.5483 197.517 24.5712 197.459 24.5942C197.402 24.6172 197.35 24.6402 197.304 24.6631C196.822 24.8698 196.26 24.9731 195.617 24.9731C195.249 24.9731 194.893 24.887 194.549 24.7148C194.204 24.5426 193.906 24.399 193.653 24.2842C193.401 24.1694 193.188 24.1178 193.016 24.1292C192.844 24.1407 192.758 24.3072 192.758 24.6287H192.103V20.4952H192.93C192.884 21.23 192.964 21.8615 193.171 22.3897C193.309 22.849 193.579 23.2795 193.98 23.6814C194.382 24.0833 194.985 24.2842 195.789 24.2842C196.317 24.2842 196.753 24.1923 197.098 24.0086C197.695 23.7101 198.102 23.3542 198.321 22.9408C198.539 22.5275 198.625 22.0969 198.579 21.6491C198.533 21.2013 198.366 20.7593 198.079 20.323C197.792 19.8866 197.442 19.4848 197.029 19.1174C196.753 18.9107 196.466 18.6925 196.168 18.4629C195.869 18.2332 195.571 17.9921 195.272 17.7395C194.468 17.0965 193.831 16.5167 193.36 16C192.89 15.4833 192.528 15.0011 192.275 14.5533C192.023 14.1055 191.851 13.6807 191.759 13.2788C191.667 12.8769 191.621 12.4464 191.621 11.9871C191.621 11.7116 191.638 11.459 191.673 11.2293C191.707 10.9997 191.747 10.793 191.793 10.6093C191.862 10.2189 191.977 9.84002 192.138 9.47259C192.298 9.10516 192.528 8.77793 192.827 8.49089C193.125 8.20386 193.493 7.96849 193.929 7.78479C194.365 7.60109 194.893 7.50923 195.513 7.50923C195.858 7.50923 196.202 7.58387 196.547 7.73312C196.891 7.88237 197.201 8.02016 197.477 8.14647C197.752 8.27278 197.97 8.3302 198.131 8.31873C198.292 8.30726 198.372 8.12928 198.372 7.78483H199.027V12.0561H198.131C198.154 11.3672 198.074 10.7471 197.89 10.196C197.729 9.71378 197.448 9.27744 197.046 8.88708C196.644 8.49673 196.053 8.30151 195.272 8.30151C194.652 8.30151 194.147 8.43929 193.757 8.71486C193.55 8.87561 193.372 9.11098 193.223 9.42099C193.073 9.731 192.987 10.0697 192.964 10.4371C192.941 10.8046 192.999 11.2007 193.137 11.6255C193.274 12.0503 193.55 12.4465 193.963 12.8139C194.009 12.8828 194.072 12.9517 194.153 13.0206C194.233 13.0894 194.319 13.1469 194.411 13.1928C194.48 13.2387 194.537 13.2846 194.583 13.3305L194.721 13.4683C194.974 13.675 195.232 13.8817 195.496 14.0883C195.76 14.295 196.03 14.5017 196.306 14.7084C196.949 15.2595 197.482 15.7589 197.907 16.2067C198.332 16.6545 198.688 17.0736 198.975 17.464C199.262 17.8544 199.475 18.2218 199.612 18.5663C199.75 18.9107 199.83 19.2437 199.853 19.5652C200.083 20.6215 200.043 21.5114 199.733 22.2347C199.423 22.9581 199.027 23.5264 198.544 23.9398H198.51C198.51 23.9857 198.487 24.0087 198.441 24.0087C198.395 24.0546 198.349 24.089 198.303 24.112L198.097 24.2498L197.89 24.3531V24.3876C197.867 24.3876 197.844 24.3933 197.821 24.4048C197.798 24.4163 197.775 24.422 197.752 24.422L197.752 24.4219Z" fill="url(#paint0_linear_4_5)"/>
<defs>
<linearGradient id="paint0_linear_4_5" x1="0" y1="0" x2="200" y2="0" gradientUnits="userSpaceOnUse">
<stop stop-color="#8F5E25"/>
<stop offset="0.5" stop-color="#FBF4A1"/>
<stop offset="1" stop-color="#8F5E25"/>
</linearGradient>
</defs>
</svg>
