<svg width="100" height="42" viewBox="0 0 100 42" fill="none" xmlns="http://www.w3.org/2000/svg">
<path d="M99.9311 28.3711C99.3745 21.9289 91.8589 20.1 91.8589 20.1C91.8589 20.1 91.0567 19.8556 89.6911 19.4411L90.0289 18.4078L92.6978 18.5611L93.81 15.1567L91.1289 13.3767L87.7622 13.1811L86.65 16.5856L88.92 17.9611L88.55 19.0944C86.6533 18.5178 84.0567 17.7289 81.0467 16.8144L81.4767 15.4978L84.1456 15.6511L85.2578 12.2467L82.5767 10.4667L79.21 10.2711L78.0978 13.6756L80.3678 15.0511L79.9044 16.4678C77.5033 15.7389 74.8856 14.9444 72.1867 14.1256L72.6089 12.8333L75.2778 12.9867L76.39 9.58222L73.7089 7.80222L70.3422 7.60667L69.23 11.0111L71.5 12.3867L71.0444 13.78C68.6178 13.0444 66.1467 12.2956 63.7244 11.5622L64.0989 10.4156L66.7678 10.5689L67.88 7.16445L65.1989 5.38444L61.8322 5.18889L60.72 8.59333L62.99 9.96889L62.5822 11.2167C59.9111 10.4078 57.3278 9.62778 54.9589 8.91333L55.2733 7.95L57.9422 8.10333L59.0544 4.69889L56.3733 2.91889L53.0067 2.72333L51.8944 6.12778L54.1644 7.50333L53.8167 8.56889C50.8578 7.67778 48.3044 6.91111 46.4411 6.35667L46.81 5.22667L49.4789 5.38L50.5911 1.97556L47.91 0.195556L44.5433 0L43.4311 3.40444L45.7011 4.78L45.2967 6.01778C44.6744 5.83444 44.1767 5.68889 43.8222 5.58667C38.1356 3.95667 38.1756 5.58666 36.0678 8.01222C33.96 10.4378 32.0911 10.2789 32.0911 10.2789L0 9.28333V25.19H27.7167C27.7167 25.19 36.0678 25.4678 39.05 27.8944C44.61 32.8789 44.5378 38.1933 44.5378 38.2333C69.9878 38.2333 77.3445 32.07 78.02 32.8256C78.6956 33.5811 80.2467 40.3811 88.9956 41.1767C97.7445 41.9722 100.488 34.8122 99.9311 28.3711Z" fill="url(#paint0_linear_4_3)"/>
<defs>
<linearGradient id="paint0_linear_4_3" x1="0" y1="0" x2="100" y2="0" gradientUnits="userSpaceOnUse">
<stop stop-color="#8F5E25"/>
<stop offset="0.463542" stop-color="#FBF4A1"/>
<stop offset="1" stop-color="#8F5E25"/>
</linearGradient>
</defs>
</svg>
